<?xml version="1.0" encoding="utf-8"?>
<!-- Generator: Adobe Illustrator 22.0.0, SVG Export Plug-In . SVG Version: 6.00 Build 0)  -->
<svg version="1.1"
	 id="svg2" xmlns:cc="http://creativecommons.org/ns#" xmlns:dc="http://purl.org/dc/elements/1.1/" xmlns:rdf="http://www.w3.org/1999/02/22-rdf-syntax-ns#" xmlns:svg="http://www.w3.org/2000/svg"
	 xmlns="http://www.w3.org/2000/svg" xmlns:xlink="http://www.w3.org/1999/xlink" x="0px" y="0px" viewBox="0 0 636 293.3"
	 style="enable-background:new 0 0 636 293.3;" xml:space="preserve">
<style type="text/css">
	.st0{fill:#F05C26;}
	.st1{fill:#F5941E;}
	.st2{fill:#F3E811;}
</style>
<g id="g10" transform="matrix(1.3333333,0,0,-1.3333333,0,293.33333)">
	<g id="g12" transform="scale(0.1)">
		<path id="path14" class="st0" d="M2498.7,412.4c-7-3-61,3.7-162,20c-101.3,16.3-208.8,60.3-322.5,132
			c-101.6,77-141.2,143.7-118.5,200c22.7,56.3,134.1,48.8,334.5-22.5c198.7-70.3,307.8-67.1,327.5,9.5
			c19.3,76.3-10.7,165.9-90,268.5c-56,62.7-117,144.5-183,245.5c-66.3,101-92,214.1-77,339.5c15.3,125.3,116.6,256.2,304,392.5
			c-6.3-1.3-30-32.7-71-94c-41-61-62-143.2-63-246.5c-1-103.3,55.5-218.8,169.5-346.5c125-129.3,219-254.2,282-374.5
			c63-120.3,67.9-216.8,14.5-289.5c-53-73-191.5-102.7-415.5-89c-93.4,5-131.7-4.3-115-28c17-23.7,50.5-48.5,100.5-74.5
			C2464.1,428.6,2492.4,414.4,2498.7,412.4"/>
		<path id="path16" class="st1" d="M2403.7,768.9c3.7-1,13.7,7.9,30,26.5c16.7,18.3,16.2,52.3-1.5,102
			c-17.4,49.7-74.6,120.7-172,213c-96.3,96.6-145,196.1-146,298.5c-1,102.3,15,189,48,260c32.6,71.3,51.7,108.5,57,111.5
			c-7.7-3-39.6-47.9-96-134.5c-56.4-86.6-92.3-198-108-334c-15.4-136,34.3-279.3,149-430c74.3-82.7,132.7-123.7,175-123
			C2381.2,759.3,2402.8,762.6,2403.7,768.9"/>
		<path id="path18" class="st2" d="M2056.8,837.9c5-2.7,11.8,3.2,20.5,17.5c8.7,14.3-11,51.8-59,112.5c-53,74.7-75.7,146.8-68,216.5
			c7.3,70,13.7,107.5,19,112.5c-9.7-7.7-29-58-58-151c-29-92.7-10.3-181.3,56-266C2021.6,841.3,2051.4,827.3,2056.8,837.9"/>
	</g>
</g>
</svg>
